<svg xmlns="http://www.w3.org/2000/svg" viewBox="0 0 195.53 219.55"><g id="Layer_2" data-name="Layer 2"><g id="Layer_1-2" data-name="Layer 1"><path d="M83,81.9a5,5,0,0,1-5-5V67.36a5,5,0,1,1,10,0V76.9A5,5,0,0,1,83,81.9Z"/><path d="M113.72,81.9a5,5,0,0,1-5-5V67.36a5,5,0,1,1,10,0V76.9A5,5,0,0,1,113.72,81.9Z"/><g id="QTJbth.tif"><path d="M113.63,135.37q15.6,3.58,31.19,7.18c5.47,1.27,11.05,2.24,16.37,4,10.07,3.31,16.62,10.37,20,20.41l13.36,40c2.11,6.33,1.08,9.06-4.67,12.29H113a4.44,4.44,0,0,1-.33-.9c-2.64-15.78-5.08-31.59-8-47.3-.82-4.37-.4-7.58,3.24-10.19.59-.42,1.38-1,.69-2-2.09-2.94-3.65-6.24-6.09-8.93-.13-.73-.69-1.35.08-2.19C106.27,143.68,109.94,139.51,113.63,135.37Z"/><path d="M.28,209.59c2.4-5.35,3.88-11,5.77-16.55,3-8.67,5.79-17.39,8.72-26.07,3.84-11.34,11.5-18.58,23.21-21.33,14.76-3.47,29.54-6.85,44.32-10.27,3.7,4.14,7.36,8.31,11.12,12.4.77.84.21,1.45,0,2.18-1.66,1.66-2.68,3.78-3.95,5.72-2.62,4-2.66,4.07.8,7.46a4.52,4.52,0,0,1,1.49,4.61c-2,11-3.68,22-5.54,33C85.21,207,84.07,213.11,83,219.27H6.57a10.31,10.31,0,0,1-6.29-5.81Z"/><path d="M.28,213.46a10.31,10.31,0,0,0,6.29,5.81H6.08c-1.93,0-4.62.76-5.59-.21S.28,215.4.28,213.46Z"/><path d="M138.7,71.18c-2.5-5.4-2-11.33-3-17a10.87,10.87,0,0,1-.33-2.87c.48-4.93-1.89-7.88-6.3-9.62a3.75,3.75,0,0,0-2.28-.43c-9.32,2.14-18.39.36-27.42-1.82a118,118,0,0,1-19.85-6.71c-1.1-.49-1.89-.7-2.94.35-4.36,4.41-8.73,8.84-14.54,11.4-.74.33-.8.89-.88,1.55-.77,6.63-1.67,13.26-2.3,19.9-.18,1.94-1.09,3.5-1.64,5.24l-2.31,3.5c0-2.66-.17-4.82,0-7s-.61-2.65-2.5-1.92c-2-11.29-3.81-22.59-1-34a30.15,30.15,0,0,1,6-12.49,18.52,18.52,0,0,1,14.8-6.91,2.76,2.76,0,0,0,2.5-1C81.18,3.73,89.8.82,99.32.14,109.85-.62,119.94,1.85,130,4.72c4.48,1.28,8.94,2.65,13.49,3.66,4.28,1,8.62,1.24,12.7-2a42.32,42.32,0,0,1-9.67,25.11,4.65,4.65,0,0,0-1.24,4.23c1.29,7.72.47,15.43-.59,23.11-.33,2.39-.82,4.75-1.24,7.13-1.94-.87-2.65-.34-2.45,1.86s0,4.26,0,7Z"/></g></g></g></svg>